<svg id="visual" viewBox="0 0 960 540" width="960" height="540" xmlns="http://www.w3.org/2000/svg" xmlns:xlink="http://www.w3.org/1999/xlink" version="1.1"><rect x="0" y="0" width="960" height="540" fill="#ffffff"></rect><path d="M0 391L12.3 372.5C24.7 354 49.3 317 74 318.5C98.7 320 123.3 360 148 360C172.7 360 197.3 320 221.8 294.7C246.3 269.3 270.7 258.7 295.2 257.2C319.7 255.7 344.3 263.3 369 281.3C393.7 299.3 418.3 327.7 443 329.8C467.7 332 492.3 308 517 324.7C541.7 341.3 566.3 398.7 591 404.5C615.7 410.3 640.3 364.7 664.8 370.8C689.3 377 713.7 435 738.2 428C762.7 421 787.3 349 812 351.3C836.7 353.7 861.3 430.3 886 458.7C910.7 487 935.3 467 947.7 457L960 447L960 541L947.7 541C935.3 541 910.7 541 886 541C861.3 541 836.7 541 812 541C787.3 541 762.7 541 738.2 541C713.7 541 689.3 541 664.8 541C640.3 541 615.7 541 591 541C566.3 541 541.7 541 517 541C492.3 541 467.7 541 443 541C418.3 541 393.7 541 369 541C344.3 541 319.7 541 295.2 541C270.7 541 246.3 541 221.8 541C197.3 541 172.7 541 148 541C123.3 541 98.7 541 74 541C49.3 541 24.7 541 12.3 541L0 541Z" fill="#2b1808" stroke-linecap="round" stroke-linejoin="miter"></path></svg>